<?xml version="1.0" encoding="UTF-8"?>
<svg width="38px" height="30px" viewBox="0 0 38 30" version="1.1" xmlns="http://www.w3.org/2000/svg" xmlns:xlink="http://www.w3.org/1999/xlink">
    <!-- Generator: sketchtool 52.2 (67145) - http://www.bohemiancoding.com/sketch -->
    <title>E49024CE-3EAF-4E9C-8ACD-5F54E2243858</title>
    <desc>Created with sketchtool.</desc>
    <g id="1400px-WOT-" stroke="none" stroke-width="1" fill="none" fill-rule="evenodd">
        <g id="[-1400---WOT-]-2.0---PDP" transform="translate(-568.000000, -612.000000)">
            <g id="Reading" transform="translate(551.000000, 612.000000)">
                <g id="SOT/-Icn/-Modules/-Reading" transform="translate(17.000000, 0.000000)">
                    <path d="M31.4492167,3.89546667 L36.02705,3.89546667 L36.02705,28.3254667 L1.97296667,28.3254667 L1.97296667,3.89546667 L6.4148,3.89546667 L6.4148,21.7831333 C6.4148,21.7831333 6.4148,24.00405 7.89538333,24.00405 C11.5968833,22.5234667 18.9999667,25.4846333 18.9999667,25.4846333 C18.9999667,25.4846333 24.1821333,22.5234667 31.5852167,24.00405 C31.5852167,21.0428833 31.4492167,3.89546667 31.4492167,3.89546667" id="Fill-1" fill="#D6E4DA"></path>
                    <path d="M18.8939583,26.4130417 C22.9385417,22.992625 30.5832083,24.127125 30.5832083,24.127125 C31.2124583,24.004125 31.7272917,23.3904583 31.7272917,22.763375 L31.7272917,2.47045833 C31.7272917,1.84345833 31.2124583,1.43095833 30.5832083,1.553875 C30.5832083,1.553875 22.9385417,0.190291667 18.8939583,3.837875" id="Fill-3" fill="#FFFFFF"></path>
                    <path d="M18.8939583,26.4130417 C14.8492917,22.992625 7.204625,24.127125 7.204625,24.127125 C6.575375,24.004125 6.06054167,23.3904583 6.06054167,22.763375 L6.06054167,2.47045833 C6.06054167,1.84345833 6.575375,1.43095833 7.204625,1.553875 C7.204625,1.553875 14.8492917,0.190291667 18.8939583,3.837875" id="Fill-5" fill="#FFFFFF"></path>
                    <path d="M35.6666667,27.8623417 L2.33333333,27.8623417 L2.33333333,4.42025833 L5.22725,4.42025833 L5.22725,22.7633417 C5.22725,23.787425 6.02558333,24.7457583 7.04466667,24.9450083 C7.13725,24.9630917 7.23291667,24.9652583 7.32641667,24.9515083 C7.39925,24.9407583 14.6508333,23.916175 18.3559167,27.0493417 C18.3626667,27.0550083 18.36975,27.0598417 18.3765833,27.0653417 C18.3860833,27.0728417 18.3956667,27.080425 18.4054167,27.0875917 C18.41975,27.097925 18.4344167,27.107425 18.4491667,27.1168417 C18.4576667,27.1222583 18.4660833,27.1280917 18.4748333,27.133175 C18.4984167,27.1470083 18.5225833,27.1595917 18.547,27.1708417 C18.5514167,27.1728417 18.556,27.1743417 18.5603333,27.1762583 C18.5815833,27.1855917 18.603,27.193925 18.6248333,27.201425 C18.6324167,27.2040083 18.64,27.206175 18.6475833,27.2085083 C18.6668333,27.2145083 18.6860833,27.219675 18.7055833,27.2242583 C18.7136667,27.2260917 18.7218333,27.227925 18.73,27.2295083 C18.7501667,27.2335917 18.7703333,27.2367583 18.7906667,27.2392583 C18.7978333,27.240175 18.8048333,27.2413417 18.812,27.2420083 C18.8391667,27.244675 18.8663333,27.2463417 18.8935833,27.2463417 L18.894,27.2463417 L18.8943333,27.2463417 C18.9215833,27.2463417 18.9488333,27.244675 18.976,27.2420083 C18.9830833,27.2413417 18.99,27.240175 18.9970833,27.2392583 C19.0175,27.2367583 19.03775,27.2335917 19.0580833,27.2295083 C19.0661667,27.227925 19.07425,27.2260917 19.0821667,27.2242583 C19.1019167,27.219675 19.12125,27.214425 19.1406667,27.208425 C19.1480833,27.2060917 19.1555833,27.2040083 19.1629167,27.201425 C19.1850833,27.193925 19.2068333,27.1853417 19.2285,27.175925 C19.2325833,27.1740917 19.2366667,27.1727583 19.24075,27.1708417 C19.2653333,27.1595917 19.2895833,27.146925 19.31325,27.1330917 C19.32175,27.1280917 19.33,27.1223417 19.3385,27.1170917 C19.3533333,27.1075917 19.3681667,27.097925 19.3826667,27.0875083 C19.3923333,27.080425 19.40175,27.0728417 19.4113333,27.065425 C19.4181667,27.059925 19.4253333,27.0550083 19.4320833,27.0493417 C23.1370833,23.916175 30.3885833,24.940675 30.4609167,24.951425 C30.5545833,24.9653417 30.6501667,24.9630917 30.7431667,24.9450083 C31.76225,24.7457583 32.5606667,23.787425 32.5606667,22.7633417 L32.5606667,4.42025833 L35.6666667,4.42025833 L35.6666667,27.8623417 Z M6.91733333,2.38150833 C6.93433333,2.36750833 6.98016667,2.359175 7.04475,2.37175833 C7.14575,2.39159167 7.24958333,2.39225833 7.35091667,2.37434167 C7.42158333,2.361675 14.29125,1.18100833 18.0606667,4.223175 L18.0606667,24.829925 C14.0345,22.562425 8.3815,23.136425 7.26666667,23.2778417 C7.06691667,23.1887583 6.89391667,22.9607583 6.89391667,22.7633417 L6.89391667,3.67434167 C6.89691667,3.64559167 6.8985,3.61650833 6.8985,3.586925 C6.8985,3.557425 6.89691667,3.52825833 6.89391667,3.49950833 L6.89391667,2.47050833 C6.89391667,2.428175 6.90308333,2.39325833 6.91733333,2.38150833 Z M30.4369167,2.37434167 C30.5383333,2.39225833 30.6420833,2.39159167 30.7430833,2.37175833 C30.8075833,2.359175 30.8535,2.36750833 30.8705,2.38150833 C30.88475,2.39325833 30.894,2.428175 30.894,2.47050833 L30.894,22.7633417 C30.894,22.9607583 30.7209167,23.1887583 30.5211667,23.2778417 C29.40625,23.1363417 23.7533333,22.5622583 19.7273333,24.8298417 L19.7273333,4.22325833 C23.4883333,1.18959167 30.3666667,2.36184167 30.4369167,2.37434167 Z M36.5,2.75359167 L32.5606667,2.75359167 L32.5606667,2.47050833 C32.5606667,1.926425 32.33075,1.42500833 31.93,1.09500833 C31.5639167,0.793508333 31.0839167,0.657091667 30.5909167,0.710675 C30.0956667,0.632841667 28.3525833,0.393925 26.21575,0.495675 C23.1435833,0.641841667 20.6850833,1.40250833 18.894,2.75834167 C17.10275,1.40250833 14.6443333,0.641841667 11.5721667,0.495675 C9.43533333,0.394425 7.69225,0.632925 7.19691667,0.710675 C6.70383333,0.657008333 6.22391667,0.793508333 5.85783333,1.09500833 C5.45708333,1.42500833 5.22725,1.926425 5.22725,2.47050833 L5.22725,2.75359167 L1.5,2.75359167 C1.03983333,2.75359167 0.666666667,3.12675833 0.666666667,3.586925 L0.666666667,28.695675 C0.666666667,29.1558417 1.03983333,29.5290083 1.5,29.5290083 L36.5,29.5290083 C36.9601667,29.5290083 37.3333333,29.1558417 37.3333333,28.695675 L37.3333333,3.586925 C37.3333333,3.12675833 36.9601667,2.75359167 36.5,2.75359167 Z" id="Fill-7" fill="#327846"></path>
                </g>
            </g>
        </g>
    </g>
</svg>